<mxfile host="app.diagrams.net" modified="2021-02-03T10:30:21.563Z" agent="5.0 (Windows NT 10.0; Win64; x64) AppleWebKit/537.36 (KHTML, like Gecko) Chrome/88.0.4324.96 Safari/537.36 Edg/88.0.705.56" etag="IlP_8GQPLDv3f0eDmhtW" version="14.2.9" type="github">
  <diagram name="Page-1" id="edf60f1a-56cd-e834-aa8a-f176f3a09ee4">
    <mxGraphModel dx="1422" dy="924" grid="1" gridSize="10" guides="1" tooltips="1" connect="1" arrows="1" fold="1" page="1" pageScale="1" pageWidth="1169" pageHeight="827" background="#ffffff" math="0" shadow="0">
      <root>
        <mxCell id="0" />
        <mxCell id="1" parent="0" />
        <mxCell id="otDOAVvc2D2W05BWRWlr-1" value="Programm" style="text;html=1;strokeColor=none;fillColor=none;align=center;verticalAlign=middle;whiteSpace=wrap;rounded=0;" vertex="1" parent="1">
          <mxGeometry x="60" y="20" width="40" height="20" as="geometry" />
        </mxCell>
        <mxCell id="otDOAVvc2D2W05BWRWlr-3" value="Modem" style="text;html=1;strokeColor=none;fillColor=none;align=center;verticalAlign=middle;whiteSpace=wrap;rounded=0;" vertex="1" parent="1">
          <mxGeometry x="960" y="20" width="40" height="20" as="geometry" />
        </mxCell>
        <mxCell id="otDOAVvc2D2W05BWRWlr-18" value="" style="edgeStyle=orthogonalEdgeStyle;rounded=0;orthogonalLoop=1;jettySize=auto;html=1;" edge="1" parent="1" source="otDOAVvc2D2W05BWRWlr-5" target="otDOAVvc2D2W05BWRWlr-7">
          <mxGeometry relative="1" as="geometry" />
        </mxCell>
        <mxCell id="otDOAVvc2D2W05BWRWlr-5" value="Programm starten" style="strokeWidth=2;html=1;shape=mxgraph.flowchart.start_1;whiteSpace=wrap;" vertex="1" parent="1">
          <mxGeometry x="280" y="80" width="160" height="60" as="geometry" />
        </mxCell>
        <mxCell id="otDOAVvc2D2W05BWRWlr-11" value="" style="edgeStyle=orthogonalEdgeStyle;rounded=0;orthogonalLoop=1;jettySize=auto;html=1;" edge="1" parent="1" source="otDOAVvc2D2W05BWRWlr-7" target="otDOAVvc2D2W05BWRWlr-8">
          <mxGeometry relative="1" as="geometry" />
        </mxCell>
        <mxCell id="otDOAVvc2D2W05BWRWlr-7" value="COM Port verbinden" style="whiteSpace=wrap;html=1;" vertex="1" parent="1">
          <mxGeometry x="280" y="190" width="160" height="60" as="geometry" />
        </mxCell>
        <mxCell id="otDOAVvc2D2W05BWRWlr-15" value="nein" style="edgeStyle=orthogonalEdgeStyle;rounded=0;orthogonalLoop=1;jettySize=auto;html=1;" edge="1" parent="1" source="otDOAVvc2D2W05BWRWlr-8" target="otDOAVvc2D2W05BWRWlr-14">
          <mxGeometry relative="1" as="geometry" />
        </mxCell>
        <mxCell id="otDOAVvc2D2W05BWRWlr-22" value="ja" style="edgeStyle=orthogonalEdgeStyle;rounded=0;orthogonalLoop=1;jettySize=auto;html=1;" edge="1" parent="1" source="otDOAVvc2D2W05BWRWlr-8" target="otDOAVvc2D2W05BWRWlr-21">
          <mxGeometry relative="1" as="geometry" />
        </mxCell>
        <mxCell id="otDOAVvc2D2W05BWRWlr-35" value="" style="edgeStyle=orthogonalEdgeStyle;rounded=0;orthogonalLoop=1;jettySize=auto;html=1;" edge="1" parent="1" target="otDOAVvc2D2W05BWRWlr-26">
          <mxGeometry relative="1" as="geometry">
            <mxPoint x="440" y="220" as="sourcePoint" />
          </mxGeometry>
        </mxCell>
        <mxCell id="otDOAVvc2D2W05BWRWlr-8" value="COM verbundern?" style="rhombus;whiteSpace=wrap;html=1;" vertex="1" parent="1">
          <mxGeometry x="280" y="290" width="160" height="80" as="geometry" />
        </mxCell>
        <mxCell id="otDOAVvc2D2W05BWRWlr-10" value="" style="edgeStyle=orthogonalEdgeStyle;rounded=0;orthogonalLoop=1;jettySize=auto;html=1;" edge="1" parent="1" source="otDOAVvc2D2W05BWRWlr-9" target="otDOAVvc2D2W05BWRWlr-7">
          <mxGeometry relative="1" as="geometry" />
        </mxCell>
        <mxCell id="otDOAVvc2D2W05BWRWlr-9" value="VerzÃ¶gerung 5 sec." style="strokeWidth=2;html=1;shape=mxgraph.flowchart.delay;whiteSpace=wrap;" vertex="1" parent="1">
          <mxGeometry x="70" y="190" width="100" height="60" as="geometry" />
        </mxCell>
        <mxCell id="otDOAVvc2D2W05BWRWlr-16" value="" style="edgeStyle=orthogonalEdgeStyle;rounded=0;orthogonalLoop=1;jettySize=auto;html=1;" edge="1" parent="1" source="otDOAVvc2D2W05BWRWlr-14" target="otDOAVvc2D2W05BWRWlr-9">
          <mxGeometry relative="1" as="geometry" />
        </mxCell>
        <mxCell id="otDOAVvc2D2W05BWRWlr-17" value="nein" style="edgeLabel;html=1;align=center;verticalAlign=middle;resizable=0;points=[];" vertex="1" connectable="0" parent="otDOAVvc2D2W05BWRWlr-16">
          <mxGeometry x="0.34" relative="1" as="geometry">
            <mxPoint as="offset" />
          </mxGeometry>
        </mxCell>
        <mxCell id="otDOAVvc2D2W05BWRWlr-20" value="ja" style="edgeStyle=orthogonalEdgeStyle;rounded=0;orthogonalLoop=1;jettySize=auto;html=1;entryX=0.5;entryY=0;entryDx=0;entryDy=0;entryPerimeter=0;" edge="1" parent="1" source="otDOAVvc2D2W05BWRWlr-14" target="otDOAVvc2D2W05BWRWlr-39">
          <mxGeometry relative="1" as="geometry">
            <mxPoint x="120" y="410" as="targetPoint" />
          </mxGeometry>
        </mxCell>
        <mxCell id="otDOAVvc2D2W05BWRWlr-14" value="max. Versuche" style="rhombus;whiteSpace=wrap;html=1;" vertex="1" parent="1">
          <mxGeometry x="40" y="290" width="160" height="80" as="geometry" />
        </mxCell>
        <mxCell id="otDOAVvc2D2W05BWRWlr-21" value="Loop GSM-&lt;br&gt;Sendetakt" style="shape=process;whiteSpace=wrap;html=1;backgroundOutline=1;" vertex="1" parent="1">
          <mxGeometry x="300" y="420" width="120" height="60" as="geometry" />
        </mxCell>
        <mxCell id="otDOAVvc2D2W05BWRWlr-37" value="" style="edgeStyle=orthogonalEdgeStyle;rounded=0;orthogonalLoop=1;jettySize=auto;html=1;" edge="1" parent="1" source="otDOAVvc2D2W05BWRWlr-26" target="otDOAVvc2D2W05BWRWlr-36">
          <mxGeometry relative="1" as="geometry" />
        </mxCell>
        <mxCell id="otDOAVvc2D2W05BWRWlr-26" value="&lt;span&gt;Ereignis: GSM Daten erhalten&lt;/span&gt;" style="strokeWidth=2;html=1;shape=mxgraph.flowchart.start_2;whiteSpace=wrap;" vertex="1" parent="1">
          <mxGeometry x="450" y="380" width="100" height="100" as="geometry" />
        </mxCell>
        <mxCell id="otDOAVvc2D2W05BWRWlr-28" style="edgeStyle=orthogonalEdgeStyle;rounded=0;orthogonalLoop=1;jettySize=auto;html=1;exitX=0.5;exitY=1;exitDx=0;exitDy=0;exitPerimeter=0;" edge="1" parent="1" source="otDOAVvc2D2W05BWRWlr-26" target="otDOAVvc2D2W05BWRWlr-26">
          <mxGeometry relative="1" as="geometry" />
        </mxCell>
        <mxCell id="otDOAVvc2D2W05BWRWlr-40" value="" style="edgeStyle=orthogonalEdgeStyle;rounded=0;orthogonalLoop=1;jettySize=auto;html=1;" edge="1" parent="1" source="otDOAVvc2D2W05BWRWlr-36" target="otDOAVvc2D2W05BWRWlr-38">
          <mxGeometry relative="1" as="geometry" />
        </mxCell>
        <mxCell id="otDOAVvc2D2W05BWRWlr-36" value="Lese Daten von GSM" style="shape=process;whiteSpace=wrap;html=1;backgroundOutline=1;" vertex="1" parent="1">
          <mxGeometry x="440" y="520" width="120" height="60" as="geometry" />
        </mxCell>
        <mxCell id="otDOAVvc2D2W05BWRWlr-38" value="&lt;span&gt;Ereignis: GSM Daten erhalten&lt;/span&gt;" style="strokeWidth=2;html=1;shape=mxgraph.flowchart.start_2;whiteSpace=wrap;" vertex="1" parent="1">
          <mxGeometry x="450" y="620" width="100" height="100" as="geometry" />
        </mxCell>
        <mxCell id="otDOAVvc2D2W05BWRWlr-39" value="&lt;span style=&quot;font-family: &amp;#34;helvetica&amp;#34; ; font-size: 12px&quot;&gt;Programm beenden&lt;/span&gt;" style="strokeWidth=1;html=1;shape=mxgraph.flowchart.terminator;whiteSpace=wrap;rounded=0;shadow=1;labelBackgroundColor=none;fontFamily=Verdana;fontSize=8;align=center;" vertex="1" parent="1">
          <mxGeometry x="55" y="413.5" width="130" height="65" as="geometry" />
        </mxCell>
      </root>
    </mxGraphModel>
  </diagram>
</mxfile>
